<svg width="720" height="511" viewBox="0 0 720 511" fill="none" xmlns="http://www.w3.org/2000/svg">
<path d="M12 0.5H708C714.351 0.5 719.5 5.64872 719.5 12V499C719.5 505.351 714.351 510.5 708 510.5H12C5.64873 510.5 0.5 505.351 0.5 499V12C0.500008 5.64873 5.64873 0.500001 12 0.5Z" fill="#0A0A0A"/>
<path d="M12 0.5H708C714.351 0.5 719.5 5.64872 719.5 12V499C719.5 505.351 714.351 510.5 708 510.5H12C5.64873 510.5 0.5 505.351 0.5 499V12C0.500008 5.64873 5.64873 0.500001 12 0.5Z" stroke="#3D3D3D"/>
<path d="M254.423 242H250.319L243.455 231.608V242H239.351V225.152H243.455L250.319 235.592V225.152H254.423V242ZM256.102 235.28C256.102 233.904 256.358 232.696 256.87 231.656C257.398 230.616 258.11 229.816 259.006 229.256C259.902 228.696 260.902 228.416 262.006 228.416C262.95 228.416 263.774 228.608 264.478 228.992C265.198 229.376 265.75 229.88 266.134 230.504V228.608H270.238V242H266.134V240.104C265.734 240.728 265.174 241.232 264.454 241.616C263.75 242 262.926 242.192 261.982 242.192C260.894 242.192 259.902 241.912 259.006 241.352C258.11 240.776 257.398 239.968 256.87 238.928C256.358 237.872 256.102 236.656 256.102 235.28ZM266.134 235.304C266.134 234.28 265.846 233.472 265.27 232.88C264.71 232.288 264.022 231.992 263.206 231.992C262.39 231.992 261.694 232.288 261.118 232.88C260.558 233.456 260.278 234.256 260.278 235.28C260.278 236.304 260.558 237.12 261.118 237.728C261.694 238.32 262.39 238.616 263.206 238.616C264.022 238.616 264.71 238.32 265.27 237.728C265.846 237.136 266.134 236.328 266.134 235.304ZM271.911 235.28C271.911 233.904 272.167 232.696 272.679 231.656C273.207 230.616 273.919 229.816 274.815 229.256C275.711 228.696 276.711 228.416 277.815 228.416C278.695 228.416 279.495 228.6 280.215 228.968C280.951 229.336 281.527 229.832 281.943 230.456V224.24H286.047V242H281.943V240.08C281.559 240.72 281.007 241.232 280.287 241.616C279.583 242 278.759 242.192 277.815 242.192C276.711 242.192 275.711 241.912 274.815 241.352C273.919 240.776 273.207 239.968 272.679 238.928C272.167 237.872 271.911 236.656 271.911 235.28ZM281.943 235.304C281.943 234.28 281.655 233.472 281.079 232.88C280.519 232.288 279.831 231.992 279.015 231.992C278.199 231.992 277.503 232.288 276.927 232.88C276.367 233.456 276.087 234.256 276.087 235.28C276.087 236.304 276.367 237.12 276.927 237.728C277.503 238.32 278.199 238.616 279.015 238.616C279.831 238.616 280.519 238.32 281.079 237.728C281.655 237.136 281.943 236.328 281.943 235.304ZM287.72 235.28C287.72 233.904 287.976 232.696 288.488 231.656C289.016 230.616 289.728 229.816 290.624 229.256C291.52 228.696 292.52 228.416 293.624 228.416C294.568 228.416 295.392 228.608 296.096 228.992C296.816 229.376 297.368 229.88 297.752 230.504V228.608H301.856V242H297.752V240.104C297.352 240.728 296.792 241.232 296.072 241.616C295.368 242 294.544 242.192 293.6 242.192C292.512 242.192 291.52 241.912 290.624 241.352C289.728 240.776 289.016 239.968 288.488 238.928C287.976 237.872 287.72 236.656 287.72 235.28ZM297.752 235.304C297.752 234.28 297.464 233.472 296.888 232.88C296.328 232.288 295.64 231.992 294.824 231.992C294.008 231.992 293.312 232.288 292.736 232.88C292.176 233.456 291.896 234.256 291.896 235.28C291.896 236.304 292.176 237.12 292.736 237.728C293.312 238.32 294.008 238.616 294.824 238.616C295.64 238.616 296.328 238.32 296.888 237.728C297.464 237.136 297.752 236.328 297.752 235.304ZM315.671 232.016H313.463V242H309.359V232.016H307.871V228.608H309.359V228.224C309.359 226.576 309.831 225.328 310.775 224.48C311.719 223.616 313.103 223.184 314.927 223.184C315.231 223.184 315.455 223.192 315.599 223.208V226.688C314.815 226.64 314.263 226.752 313.943 227.024C313.623 227.296 313.463 227.784 313.463 228.488V228.608H315.671V232.016ZM323.215 242.192C321.903 242.192 320.719 241.912 319.663 241.352C318.623 240.792 317.799 239.992 317.191 238.952C316.599 237.912 316.303 236.696 316.303 235.304C316.303 233.928 316.607 232.72 317.215 231.68C317.823 230.624 318.655 229.816 319.711 229.256C320.767 228.696 321.951 228.416 323.263 228.416C324.575 228.416 325.759 228.696 326.815 229.256C327.871 229.816 328.703 230.624 329.311 231.68C329.919 232.72 330.223 233.928 330.223 235.304C330.223 236.68 329.911 237.896 329.287 238.952C328.679 239.992 327.839 240.792 326.767 241.352C325.711 241.912 324.527 242.192 323.215 242.192ZM323.215 238.64C323.999 238.64 324.663 238.352 325.207 237.776C325.767 237.2 326.047 236.376 326.047 235.304C326.047 234.232 325.775 233.408 325.231 232.832C324.703 232.256 324.047 231.968 323.263 231.968C322.463 231.968 321.799 232.256 321.271 232.832C320.743 233.392 320.479 234.216 320.479 235.304C320.479 236.376 320.735 237.2 321.247 237.776C321.775 238.352 322.431 238.64 323.215 238.64ZM333.985 227.216C333.265 227.216 332.673 227.008 332.209 226.592C331.761 226.16 331.537 225.632 331.537 225.008C331.537 224.368 331.761 223.84 332.209 223.424C332.673 222.992 333.265 222.776 333.985 222.776C334.689 222.776 335.265 222.992 335.713 223.424C336.177 223.84 336.409 224.368 336.409 225.008C336.409 225.632 336.177 226.16 335.713 226.592C335.265 227.008 334.689 227.216 333.985 227.216ZM336.025 228.608V242H331.921V228.608H336.025ZM355.749 235.088C355.749 235.472 355.725 235.872 355.677 236.288H346.389C346.453 237.12 346.717 237.76 347.181 238.208C347.661 238.64 348.245 238.856 348.933 238.856C349.957 238.856 350.669 238.424 351.069 237.56H355.437C355.213 238.44 354.805 239.232 354.213 239.936C353.637 240.64 352.909 241.192 352.029 241.592C351.149 241.992 350.165 242.192 349.077 242.192C347.765 242.192 346.597 241.912 345.573 241.352C344.549 240.792 343.749 239.992 343.173 238.952C342.597 237.912 342.309 236.696 342.309 235.304C342.309 233.912 342.589 232.696 343.149 231.656C343.725 230.616 344.525 229.816 345.549 229.256C346.573 228.696 347.749 228.416 349.077 228.416C350.373 228.416 351.525 228.688 352.533 229.232C353.541 229.776 354.325 230.552 354.885 231.56C355.461 232.568 355.749 233.744 355.749 235.088ZM351.549 234.008C351.549 233.304 351.309 232.744 350.829 232.328C350.349 231.912 349.749 231.704 349.029 231.704C348.341 231.704 347.757 231.904 347.277 232.304C346.813 232.704 346.525 233.272 346.413 234.008H351.549ZM365.594 228.464C367.162 228.464 368.41 228.976 369.338 230C370.282 231.008 370.754 232.4 370.754 234.176V242H366.674V234.728C366.674 233.832 366.442 233.136 365.978 232.64C365.514 232.144 364.89 231.896 364.106 231.896C363.322 231.896 362.698 232.144 362.234 232.64C361.77 233.136 361.538 233.832 361.538 234.728V242H357.434V228.608H361.538V230.384C361.954 229.792 362.514 229.328 363.218 228.992C363.922 228.64 364.714 228.464 365.594 228.464ZM372.31 235.304C372.31 233.912 372.59 232.696 373.15 231.656C373.726 230.616 374.518 229.816 375.526 229.256C376.55 228.696 377.718 228.416 379.03 228.416C380.71 228.416 382.11 228.856 383.23 229.736C384.366 230.616 385.11 231.856 385.462 233.456H381.094C380.726 232.432 380.014 231.92 378.958 231.92C378.206 231.92 377.606 232.216 377.158 232.808C376.71 233.384 376.486 234.216 376.486 235.304C376.486 236.392 376.71 237.232 377.158 237.824C377.606 238.4 378.206 238.688 378.958 238.688C380.014 238.688 380.726 238.176 381.094 237.152H385.462C385.11 238.72 384.366 239.952 383.23 240.848C382.094 241.744 380.694 242.192 379.03 242.192C377.718 242.192 376.55 241.912 375.526 241.352C374.518 240.792 373.726 239.992 373.15 238.952C372.59 237.912 372.31 236.696 372.31 235.304ZM393.273 242.192C391.961 242.192 390.777 241.912 389.721 241.352C388.681 240.792 387.857 239.992 387.249 238.952C386.657 237.912 386.361 236.696 386.361 235.304C386.361 233.928 386.665 232.72 387.273 231.68C387.881 230.624 388.713 229.816 389.769 229.256C390.825 228.696 392.009 228.416 393.321 228.416C394.633 228.416 395.817 228.696 396.873 229.256C397.929 229.816 398.761 230.624 399.369 231.68C399.977 232.72 400.281 233.928 400.281 235.304C400.281 236.68 399.969 237.896 399.345 238.952C398.737 239.992 397.897 240.792 396.825 241.352C395.769 241.912 394.585 242.192 393.273 242.192ZM393.273 238.64C394.057 238.64 394.721 238.352 395.265 237.776C395.825 237.2 396.105 236.376 396.105 235.304C396.105 234.232 395.833 233.408 395.289 232.832C394.761 232.256 394.105 231.968 393.321 231.968C392.521 231.968 391.857 232.256 391.329 232.832C390.801 233.392 390.537 234.216 390.537 235.304C390.537 236.376 390.793 237.2 391.305 237.776C391.833 238.352 392.489 238.64 393.273 238.64ZM410.138 228.464C411.706 228.464 412.954 228.976 413.882 230C414.826 231.008 415.298 232.4 415.298 234.176V242H411.218V234.728C411.218 233.832 410.986 233.136 410.522 232.64C410.058 232.144 409.434 231.896 408.65 231.896C407.866 231.896 407.242 232.144 406.778 232.64C406.314 233.136 406.082 233.832 406.082 234.728V242H401.978V228.608H406.082V230.384C406.498 229.792 407.058 229.328 407.762 228.992C408.466 228.64 409.258 228.464 410.138 228.464ZM425.134 238.52V242H423.046C421.558 242 420.398 241.64 419.566 240.92C418.734 240.184 418.318 238.992 418.318 237.344V232.016H416.686V228.608H418.318V225.344H422.422V228.608H425.11V232.016H422.422V237.392C422.422 237.792 422.518 238.08 422.71 238.256C422.902 238.432 423.222 238.52 423.67 238.52H425.134ZM431.044 230.84C431.524 230.104 432.124 229.528 432.844 229.112C433.564 228.68 434.364 228.464 435.244 228.464V232.808H434.116C433.092 232.808 432.324 233.032 431.812 233.48C431.3 233.912 431.044 234.68 431.044 235.784V242H426.94V228.608H431.044V230.84ZM435.91 235.28C435.91 233.904 436.166 232.696 436.678 231.656C437.206 230.616 437.918 229.816 438.814 229.256C439.71 228.696 440.71 228.416 441.814 228.416C442.758 228.416 443.582 228.608 444.286 228.992C445.006 229.376 445.558 229.88 445.942 230.504V228.608H450.046V242H445.942V240.104C445.542 240.728 444.982 241.232 444.262 241.616C443.558 242 442.734 242.192 441.79 242.192C440.702 242.192 439.71 241.912 438.814 241.352C437.918 240.776 437.206 239.968 436.678 238.928C436.166 237.872 435.91 236.656 435.91 235.28ZM445.942 235.304C445.942 234.28 445.654 233.472 445.078 232.88C444.518 232.288 443.83 231.992 443.014 231.992C442.198 231.992 441.502 232.288 440.926 232.88C440.366 233.456 440.086 234.256 440.086 235.28C440.086 236.304 440.366 237.12 440.926 237.728C441.502 238.32 442.198 238.616 443.014 238.616C443.83 238.616 444.518 238.32 445.078 237.728C445.654 237.136 445.942 236.328 445.942 235.304ZM451.719 235.28C451.719 233.904 451.975 232.696 452.487 231.656C453.015 230.616 453.727 229.816 454.623 229.256C455.519 228.696 456.519 228.416 457.623 228.416C458.503 228.416 459.303 228.6 460.023 228.968C460.759 229.336 461.335 229.832 461.751 230.456V224.24H465.855V242H461.751V240.08C461.367 240.72 460.815 241.232 460.095 241.616C459.391 242 458.567 242.192 457.623 242.192C456.519 242.192 455.519 241.912 454.623 241.352C453.727 240.776 453.015 239.968 452.487 238.928C451.975 237.872 451.719 236.656 451.719 235.28ZM461.751 235.304C461.751 234.28 461.463 233.472 460.887 232.88C460.327 232.288 459.639 231.992 458.823 231.992C458.007 231.992 457.311 232.288 456.735 232.88C456.175 233.456 455.895 234.256 455.895 235.28C455.895 236.304 456.175 237.12 456.735 237.728C457.311 238.32 458.007 238.616 458.823 238.616C459.639 238.616 460.327 238.32 460.887 237.728C461.463 237.136 461.751 236.328 461.751 235.304ZM474.44 242.192C473.128 242.192 471.944 241.912 470.888 241.352C469.848 240.792 469.024 239.992 468.416 238.952C467.824 237.912 467.528 236.696 467.528 235.304C467.528 233.928 467.832 232.72 468.44 231.68C469.048 230.624 469.88 229.816 470.936 229.256C471.992 228.696 473.176 228.416 474.488 228.416C475.8 228.416 476.984 228.696 478.04 229.256C479.096 229.816 479.928 230.624 480.536 231.68C481.144 232.72 481.448 233.928 481.448 235.304C481.448 236.68 481.136 237.896 480.512 238.952C479.904 239.992 479.064 240.792 477.992 241.352C476.936 241.912 475.752 242.192 474.44 242.192ZM474.44 238.64C475.224 238.64 475.888 238.352 476.432 237.776C476.992 237.2 477.272 236.376 477.272 235.304C477.272 234.232 477 233.408 476.456 232.832C475.928 232.256 475.272 231.968 474.488 231.968C473.688 231.968 473.024 232.256 472.496 232.832C471.968 233.392 471.704 234.216 471.704 235.304C471.704 236.376 471.96 237.2 472.472 237.776C473 238.352 473.656 238.64 474.44 238.64Z" fill="#FAFAFA"/>
<path d="M227.727 269.454V270.786H224.307V282H222.669V270.786H219.231V269.454H227.727ZM238.743 276.69C238.743 277.002 238.725 277.332 238.689 277.68H230.805C230.865 278.652 231.195 279.414 231.795 279.966C232.407 280.506 233.145 280.776 234.009 280.776C234.717 280.776 235.305 280.614 235.773 280.29C236.253 279.954 236.589 279.51 236.781 278.958H238.545C238.281 279.906 237.753 280.68 236.961 281.28C236.169 281.868 235.185 282.162 234.009 282.162C233.073 282.162 232.233 281.952 231.489 281.532C230.757 281.112 230.181 280.518 229.761 279.75C229.341 278.97 229.131 278.07 229.131 277.05C229.131 276.03 229.335 275.136 229.743 274.368C230.151 273.6 230.721 273.012 231.453 272.604C232.197 272.184 233.049 271.974 234.009 271.974C234.945 271.974 235.773 272.178 236.493 272.586C237.213 272.994 237.765 273.558 238.149 274.278C238.545 274.986 238.743 275.79 238.743 276.69ZM237.051 276.348C237.051 275.724 236.913 275.19 236.637 274.746C236.361 274.29 235.983 273.948 235.503 273.72C235.035 273.48 234.513 273.36 233.937 273.36C233.109 273.36 232.401 273.624 231.813 274.152C231.237 274.68 230.907 275.412 230.823 276.348H237.051ZM245.712 271.956C246.912 271.956 247.884 272.322 248.628 273.054C249.372 273.774 249.744 274.818 249.744 276.186V282H248.124V276.42C248.124 275.436 247.878 274.686 247.386 274.17C246.894 273.642 246.222 273.378 245.37 273.378C244.506 273.378 243.816 273.648 243.3 274.188C242.796 274.728 242.544 275.514 242.544 276.546V282H240.906V272.136H242.544V273.54C242.868 273.036 243.306 272.646 243.858 272.37C244.422 272.094 245.04 271.956 245.712 271.956ZM254.417 273.486V279.3C254.417 279.78 254.519 280.122 254.723 280.326C254.927 280.518 255.281 280.614 255.785 280.614H256.991V282H255.515C254.603 282 253.919 281.79 253.463 281.37C253.007 280.95 252.779 280.26 252.779 279.3V273.486H251.501V272.136H252.779V269.652H254.417V272.136H256.991V273.486H254.417ZM267.976 276.69C267.976 277.002 267.958 277.332 267.922 277.68H260.038C260.098 278.652 260.428 279.414 261.028 279.966C261.64 280.506 262.378 280.776 263.242 280.776C263.95 280.776 264.538 280.614 265.006 280.29C265.486 279.954 265.822 279.51 266.014 278.958H267.778C267.514 279.906 266.986 280.68 266.194 281.28C265.402 281.868 264.418 282.162 263.242 282.162C262.306 282.162 261.466 281.952 260.722 281.532C259.99 281.112 259.414 280.518 258.994 279.75C258.574 278.97 258.364 278.07 258.364 277.05C258.364 276.03 258.568 275.136 258.976 274.368C259.384 273.6 259.954 273.012 260.686 272.604C261.43 272.184 262.282 271.974 263.242 271.974C264.178 271.974 265.006 272.178 265.726 272.586C266.446 272.994 266.998 273.558 267.382 274.278C267.778 274.986 267.976 275.79 267.976 276.69ZM266.284 276.348C266.284 275.724 266.146 275.19 265.87 274.746C265.594 274.29 265.216 273.948 264.736 273.72C264.268 273.48 263.746 273.36 263.17 273.36C262.342 273.36 261.634 273.624 261.046 274.152C260.47 274.68 260.14 275.412 260.056 276.348H266.284ZM276.575 273.738C276.863 273.174 277.271 272.736 277.799 272.424C278.339 272.112 278.993 271.956 279.761 271.956V273.648H279.329C277.493 273.648 276.575 274.644 276.575 276.636V282H274.937V272.136H276.575V273.738ZM290.652 276.69C290.652 277.002 290.634 277.332 290.598 277.68H282.714C282.774 278.652 283.104 279.414 283.704 279.966C284.316 280.506 285.054 280.776 285.918 280.776C286.626 280.776 287.214 280.614 287.682 280.29C288.162 279.954 288.498 279.51 288.69 278.958H290.454C290.19 279.906 289.662 280.68 288.87 281.28C288.078 281.868 287.094 282.162 285.918 282.162C284.982 282.162 284.142 281.952 283.398 281.532C282.666 281.112 282.09 280.518 281.67 279.75C281.25 278.97 281.04 278.07 281.04 277.05C281.04 276.03 281.244 275.136 281.652 274.368C282.06 273.6 282.63 273.012 283.362 272.604C284.106 272.184 284.958 271.974 285.918 271.974C286.854 271.974 287.682 272.178 288.402 272.586C289.122 272.994 289.674 273.558 290.058 274.278C290.454 274.986 290.652 275.79 290.652 276.69ZM288.96 276.348C288.96 275.724 288.822 275.19 288.546 274.746C288.27 274.29 287.892 273.948 287.412 273.72C286.944 273.48 286.422 273.36 285.846 273.36C285.018 273.36 284.31 273.624 283.722 274.152C283.146 274.68 282.816 275.412 282.732 276.348H288.96ZM292.202 277.032C292.202 276.024 292.406 275.142 292.814 274.386C293.222 273.618 293.78 273.024 294.488 272.604C295.208 272.184 296.006 271.974 296.882 271.974C297.746 271.974 298.496 272.16 299.132 272.532C299.768 272.904 300.242 273.372 300.554 273.936V272.136H302.21V282H300.554V280.164C300.23 280.74 299.744 281.22 299.096 281.604C298.46 281.976 297.716 282.162 296.864 282.162C295.988 282.162 295.196 281.946 294.488 281.514C293.78 281.082 293.222 280.476 292.814 279.696C292.406 278.916 292.202 278.028 292.202 277.032ZM300.554 277.05C300.554 276.306 300.404 275.658 300.104 275.106C299.804 274.554 299.396 274.134 298.88 273.846C298.376 273.546 297.818 273.396 297.206 273.396C296.594 273.396 296.036 273.54 295.532 273.828C295.028 274.116 294.626 274.536 294.326 275.088C294.026 275.64 293.876 276.288 293.876 277.032C293.876 277.788 294.026 278.448 294.326 279.012C294.626 279.564 295.028 279.99 295.532 280.29C296.036 280.578 296.594 280.722 297.206 280.722C297.818 280.722 298.376 280.578 298.88 280.29C299.396 279.99 299.804 279.564 300.104 279.012C300.404 278.448 300.554 277.794 300.554 277.05ZM306.616 268.68V282H304.978V268.68H306.616ZM310.253 270.534C309.941 270.534 309.677 270.426 309.461 270.21C309.245 269.994 309.137 269.73 309.137 269.418C309.137 269.106 309.245 268.842 309.461 268.626C309.677 268.41 309.941 268.302 310.253 268.302C310.553 268.302 310.805 268.41 311.009 268.626C311.225 268.842 311.333 269.106 311.333 269.418C311.333 269.73 311.225 269.994 311.009 270.21C310.805 270.426 310.553 270.534 310.253 270.534ZM311.045 272.136V282H309.407V272.136H311.045ZM315.061 280.65H319.903V282H313.189V280.65L317.977 273.468H313.225V272.136H319.867V273.468L315.061 280.65ZM321.417 277.032C321.417 276.024 321.621 275.142 322.029 274.386C322.437 273.618 322.995 273.024 323.703 272.604C324.423 272.184 325.221 271.974 326.097 271.974C326.961 271.974 327.711 272.16 328.347 272.532C328.983 272.904 329.457 273.372 329.769 273.936V272.136H331.425V282H329.769V280.164C329.445 280.74 328.959 281.22 328.311 281.604C327.675 281.976 326.931 282.162 326.079 282.162C325.203 282.162 324.411 281.946 323.703 281.514C322.995 281.082 322.437 280.476 322.029 279.696C321.621 278.916 321.417 278.028 321.417 277.032ZM329.769 277.05C329.769 276.306 329.619 275.658 329.319 275.106C329.019 274.554 328.611 274.134 328.095 273.846C327.591 273.546 327.033 273.396 326.421 273.396C325.809 273.396 325.251 273.54 324.747 273.828C324.243 274.116 323.841 274.536 323.541 275.088C323.241 275.64 323.091 276.288 323.091 277.032C323.091 277.788 323.241 278.448 323.541 279.012C323.841 279.564 324.243 279.99 324.747 280.29C325.251 280.578 325.809 280.722 326.421 280.722C327.033 280.722 327.591 280.578 328.095 280.29C328.611 279.99 329.019 279.564 329.319 279.012C329.619 278.448 329.769 277.794 329.769 277.05ZM335.831 273.738C336.119 273.174 336.527 272.736 337.055 272.424C337.595 272.112 338.249 271.956 339.017 271.956V273.648H338.585C336.749 273.648 335.831 274.644 335.831 276.636V282H334.193V272.136H335.831V273.738ZM354.454 272.136V282H352.816V280.542C352.504 281.046 352.066 281.442 351.502 281.73C350.95 282.006 350.338 282.144 349.666 282.144C348.898 282.144 348.208 281.988 347.596 281.676C346.984 281.352 346.498 280.872 346.138 280.236C345.79 279.6 345.616 278.826 345.616 277.914V272.136H347.236V277.698C347.236 278.67 347.482 279.42 347.974 279.948C348.466 280.464 349.138 280.722 349.99 280.722C350.866 280.722 351.556 280.452 352.06 279.912C352.564 279.372 352.816 278.586 352.816 277.554V272.136H354.454ZM369.082 271.956C369.85 271.956 370.534 272.118 371.134 272.442C371.734 272.754 372.208 273.228 372.556 273.864C372.904 274.5 373.078 275.274 373.078 276.186V282H371.458V276.42C371.458 275.436 371.212 274.686 370.72 274.17C370.24 273.642 369.586 273.378 368.758 273.378C367.906 273.378 367.228 273.654 366.724 274.206C366.22 274.746 365.968 275.532 365.968 276.564V282H364.348V276.42C364.348 275.436 364.102 274.686 363.61 274.17C363.13 273.642 362.476 273.378 361.648 273.378C360.796 273.378 360.118 273.654 359.614 274.206C359.11 274.746 358.858 275.532 358.858 276.564V282H357.22V272.136H358.858V273.558C359.182 273.042 359.614 272.646 360.154 272.37C360.706 272.094 361.312 271.956 361.972 271.956C362.8 271.956 363.532 272.142 364.168 272.514C364.804 272.886 365.278 273.432 365.59 274.152C365.866 273.456 366.322 272.916 366.958 272.532C367.594 272.148 368.302 271.956 369.082 271.956ZM375.153 277.032C375.153 276.024 375.357 275.142 375.765 274.386C376.173 273.618 376.731 273.024 377.439 272.604C378.159 272.184 378.957 271.974 379.833 271.974C380.697 271.974 381.447 272.16 382.083 272.532C382.719 272.904 383.193 273.372 383.505 273.936V272.136H385.161V282H383.505V280.164C383.181 280.74 382.695 281.22 382.047 281.604C381.411 281.976 380.667 282.162 379.815 282.162C378.939 282.162 378.147 281.946 377.439 281.514C376.731 281.082 376.173 280.476 375.765 279.696C375.357 278.916 375.153 278.028 375.153 277.032ZM383.505 277.05C383.505 276.306 383.355 275.658 383.055 275.106C382.755 274.554 382.347 274.134 381.831 273.846C381.327 273.546 380.769 273.396 380.157 273.396C379.545 273.396 378.987 273.54 378.483 273.828C377.979 274.116 377.577 274.536 377.277 275.088C376.977 275.64 376.827 276.288 376.827 277.032C376.827 277.788 376.977 278.448 377.277 279.012C377.577 279.564 377.979 279.99 378.483 280.29C378.987 280.578 379.545 280.722 380.157 280.722C380.769 280.722 381.327 280.578 381.831 280.29C382.347 279.99 382.755 279.564 383.055 279.012C383.355 278.448 383.505 277.794 383.505 277.05ZM397.534 271.956C398.734 271.956 399.706 272.322 400.45 273.054C401.194 273.774 401.566 274.818 401.566 276.186V282H399.946V276.42C399.946 275.436 399.7 274.686 399.208 274.17C398.716 273.642 398.044 273.378 397.192 273.378C396.328 273.378 395.638 273.648 395.122 274.188C394.618 274.728 394.366 275.514 394.366 276.546V282H392.728V272.136H394.366V273.54C394.69 273.036 395.128 272.646 395.68 272.37C396.244 272.094 396.862 271.956 397.534 271.956ZM408.543 282.162C407.619 282.162 406.779 281.952 406.023 281.532C405.279 281.112 404.691 280.518 404.259 279.75C403.839 278.97 403.629 278.07 403.629 277.05C403.629 276.042 403.845 275.154 404.277 274.386C404.721 273.606 405.321 273.012 406.077 272.604C406.833 272.184 407.679 271.974 408.615 271.974C409.551 271.974 410.397 272.184 411.153 272.604C411.909 273.012 412.503 273.6 412.935 274.368C413.379 275.136 413.601 276.03 413.601 277.05C413.601 278.07 413.373 278.97 412.917 279.75C412.473 280.518 411.867 281.112 411.099 281.532C410.331 281.952 409.479 282.162 408.543 282.162ZM408.543 280.722C409.131 280.722 409.683 280.584 410.199 280.308C410.715 280.032 411.129 279.618 411.441 279.066C411.765 278.514 411.927 277.842 411.927 277.05C411.927 276.258 411.771 275.586 411.459 275.034C411.147 274.482 410.739 274.074 410.235 273.81C409.731 273.534 409.185 273.396 408.597 273.396C407.997 273.396 407.445 273.534 406.941 273.81C406.449 274.074 406.053 274.482 405.753 275.034C405.453 275.586 405.303 276.258 405.303 277.05C405.303 277.854 405.447 278.532 405.735 279.084C406.035 279.636 406.431 280.05 406.923 280.326C407.415 280.59 407.955 280.722 408.543 280.722ZM419.427 280.488L422.487 272.136H424.233L420.363 282H418.455L414.585 272.136H416.349L419.427 280.488ZM425.233 277.032C425.233 276.024 425.437 275.142 425.845 274.386C426.253 273.618 426.811 273.024 427.519 272.604C428.239 272.184 429.037 271.974 429.913 271.974C430.777 271.974 431.527 272.16 432.163 272.532C432.799 272.904 433.273 273.372 433.585 273.936V272.136H435.241V282H433.585V280.164C433.261 280.74 432.775 281.22 432.127 281.604C431.491 281.976 430.747 282.162 429.895 282.162C429.019 282.162 428.227 281.946 427.519 281.514C426.811 281.082 426.253 280.476 425.845 279.696C425.437 278.916 425.233 278.028 425.233 277.032ZM433.585 277.05C433.585 276.306 433.435 275.658 433.135 275.106C432.835 274.554 432.427 274.134 431.911 273.846C431.407 273.546 430.849 273.396 430.237 273.396C429.625 273.396 429.067 273.54 428.563 273.828C428.059 274.116 427.657 274.536 427.357 275.088C427.057 275.64 426.907 276.288 426.907 277.032C426.907 277.788 427.057 278.448 427.357 279.012C427.657 279.564 428.059 279.99 428.563 280.29C429.067 280.578 429.625 280.722 430.237 280.722C430.849 280.722 431.407 280.578 431.911 280.29C432.427 279.99 432.835 279.564 433.135 279.012C433.435 278.448 433.585 277.794 433.585 277.05ZM444.446 273.972C444.782 273.384 445.274 272.904 445.922 272.532C446.57 272.16 447.308 271.974 448.136 271.974C449.024 271.974 449.822 272.184 450.53 272.604C451.238 273.024 451.796 273.618 452.204 274.386C452.612 275.142 452.816 276.024 452.816 277.032C452.816 278.028 452.612 278.916 452.204 279.696C451.796 280.476 451.232 281.082 450.512 281.514C449.804 281.946 449.012 282.162 448.136 282.162C447.284 282.162 446.534 281.976 445.886 281.604C445.25 281.232 444.77 280.758 444.446 280.182V282H442.808V268.68H444.446V273.972ZM451.142 277.032C451.142 276.288 450.992 275.64 450.692 275.088C450.392 274.536 449.984 274.116 449.468 273.828C448.964 273.54 448.406 273.396 447.794 273.396C447.194 273.396 446.636 273.546 446.12 273.846C445.616 274.134 445.208 274.56 444.896 275.124C444.596 275.676 444.446 276.318 444.446 277.05C444.446 277.794 444.596 278.448 444.896 279.012C445.208 279.564 445.616 279.99 446.12 280.29C446.636 280.578 447.194 280.722 447.794 280.722C448.406 280.722 448.964 280.578 449.468 280.29C449.984 279.99 450.392 279.564 450.692 279.012C450.992 278.448 451.142 277.788 451.142 277.032ZM463.72 272.136V282H462.082V280.542C461.77 281.046 461.332 281.442 460.768 281.73C460.216 282.006 459.604 282.144 458.932 282.144C458.164 282.144 457.474 281.988 456.862 281.676C456.25 281.352 455.764 280.872 455.404 280.236C455.056 279.6 454.882 278.826 454.882 277.914V272.136H456.502V277.698C456.502 278.67 456.748 279.42 457.24 279.948C457.732 280.464 458.404 280.722 459.256 280.722C460.132 280.722 460.822 280.452 461.326 279.912C461.83 279.372 462.082 278.586 462.082 277.554V272.136H463.72ZM469.978 282.162C469.222 282.162 468.544 282.036 467.944 281.784C467.344 281.52 466.87 281.16 466.522 280.704C466.174 280.236 465.982 279.702 465.946 279.102H467.638C467.686 279.594 467.914 279.996 468.322 280.308C468.742 280.62 469.288 280.776 469.96 280.776C470.584 280.776 471.076 280.638 471.436 280.362C471.796 280.086 471.976 279.738 471.976 279.318C471.976 278.886 471.784 278.568 471.4 278.364C471.016 278.148 470.422 277.938 469.618 277.734C468.886 277.542 468.286 277.35 467.818 277.158C467.362 276.954 466.966 276.66 466.63 276.276C466.306 275.88 466.144 275.364 466.144 274.728C466.144 274.224 466.294 273.762 466.594 273.342C466.894 272.922 467.32 272.592 467.872 272.352C468.424 272.1 469.054 271.974 469.762 271.974C470.854 271.974 471.736 272.25 472.408 272.802C473.08 273.354 473.44 274.11 473.488 275.07H471.85C471.814 274.554 471.604 274.14 471.22 273.828C470.848 273.516 470.344 273.36 469.708 273.36C469.12 273.36 468.652 273.486 468.304 273.738C467.956 273.99 467.782 274.32 467.782 274.728C467.782 275.052 467.884 275.322 468.088 275.538C468.304 275.742 468.568 275.91 468.88 276.042C469.204 276.162 469.648 276.3 470.212 276.456C470.92 276.648 471.496 276.84 471.94 277.032C472.384 277.212 472.762 277.488 473.074 277.86C473.398 278.232 473.566 278.718 473.578 279.318C473.578 279.858 473.428 280.344 473.128 280.776C472.828 281.208 472.402 281.55 471.85 281.802C471.31 282.042 470.686 282.162 469.978 282.162ZM475.278 277.05C475.278 276.03 475.482 275.142 475.89 274.386C476.298 273.618 476.862 273.024 477.582 272.604C478.314 272.184 479.148 271.974 480.084 271.974C481.296 271.974 482.292 272.268 483.072 272.856C483.864 273.444 484.386 274.26 484.638 275.304H482.874C482.706 274.704 482.376 274.23 481.884 273.882C481.404 273.534 480.804 273.36 480.084 273.36C479.148 273.36 478.392 273.684 477.816 274.332C477.24 274.968 476.952 275.874 476.952 277.05C476.952 278.238 477.24 279.156 477.816 279.804C478.392 280.452 479.148 280.776 480.084 280.776C480.804 280.776 481.404 280.608 481.884 280.272C482.364 279.936 482.694 279.456 482.874 278.832H484.638C484.374 279.84 483.846 280.65 483.054 281.262C482.262 281.862 481.272 282.162 480.084 282.162C479.148 282.162 478.314 281.952 477.582 281.532C476.862 281.112 476.298 280.518 475.89 279.75C475.482 278.982 475.278 278.082 475.278 277.05ZM486.212 277.032C486.212 276.024 486.416 275.142 486.824 274.386C487.232 273.618 487.79 273.024 488.498 272.604C489.218 272.184 490.016 271.974 490.892 271.974C491.756 271.974 492.506 272.16 493.142 272.532C493.778 272.904 494.252 273.372 494.564 273.936V272.136H496.22V282H494.564V280.164C494.24 280.74 493.754 281.22 493.106 281.604C492.47 281.976 491.726 282.162 490.874 282.162C489.998 282.162 489.206 281.946 488.498 281.514C487.79 281.082 487.232 280.476 486.824 279.696C486.416 278.916 486.212 278.028 486.212 277.032ZM494.564 277.05C494.564 276.306 494.414 275.658 494.114 275.106C493.814 274.554 493.406 274.134 492.89 273.846C492.386 273.546 491.828 273.396 491.216 273.396C490.604 273.396 490.046 273.54 489.542 273.828C489.038 274.116 488.636 274.536 488.336 275.088C488.036 275.64 487.886 276.288 487.886 277.032C487.886 277.788 488.036 278.448 488.336 279.012C488.636 279.564 489.038 279.99 489.542 280.29C490.046 280.578 490.604 280.722 491.216 280.722C491.828 280.722 492.386 280.578 492.89 280.29C493.406 279.99 493.814 279.564 494.114 279.012C494.414 278.448 494.564 277.794 494.564 277.05ZM499.51 282.108C499.198 282.108 498.934 282 498.718 281.784C498.502 281.568 498.394 281.304 498.394 280.992C498.394 280.68 498.502 280.416 498.718 280.2C498.934 279.984 499.198 279.876 499.51 279.876C499.81 279.876 500.062 279.984 500.266 280.2C500.482 280.416 500.59 280.68 500.59 280.992C500.59 281.304 500.482 281.568 500.266 281.784C500.062 282 499.81 282.108 499.51 282.108Z" fill="#A4A4A4"/>
</svg>
